<?xml version="1.0" standalone="no"?>
<!DOCTYPE svg PUBLIC "-//W3C//DTD SVG 20010904//EN"
 "http://www.w3.org/TR/2001/REC-SVG-20010904/DTD/svg10.dtd">
<svg version="1.0" xmlns="http://www.w3.org/2000/svg"
 width="16.000000pt" height="16.000000pt" viewBox="0 0 16.000000 16.000000"
 preserveAspectRatio="xMidYMid meet">
<metadata>
Created by potrace 1.11, written by Peter Selinger 2001-2013
</metadata>
<g transform="translate(0.000000,16.000000) scale(0.002667,-0.002667)"
fill="#000000" stroke="none">
<path d="M2845 4239 c-82 -61 -265 -193 -405 -293 -812 -581 -1305 -939 -1305
-946 0 -4 194 -147 430 -317 662 -476 1084 -781 1155 -835 36 -27 113 -83 172
-123 l108 -74 212 152 c375 270 692 494 713 504 12 6 60 7 125 3 95 -7 117
-13 234 -60 139 -56 142 -57 269 -29 51 12 64 11 106 -4 65 -23 93 -22 151 8
65 33 104 32 185 -6 56 -26 70 -30 91 -20 56 25 7 100 -79 121 -23 5 -71 25
-107 44 -99 52 -156 65 -293 67 -93 1 -131 -2 -160 -15 -33 -13 -58 -14 -170
-7 -208 15 -208 7 -16 147 90 66 198 144 240 173 76 53 77 53 107 37 46 -24
55 -20 36 16 -19 37 -25 32 134 146 51 36 91 70 90 74 -2 4 -64 51 -138 105
-123 89 -135 101 -138 132 -3 29 3 40 47 81 58 54 54 60 -34 60 -78 0 -103
-12 -111 -55 -3 -19 -9 -35 -13 -35 -3 0 -91 62 -196 137 -104 75 -388 278
-630 451 -242 173 -488 350 -546 394 -59 43 -108 78 -110 77 -2 0 -71 -50
-154 -110z m213 -18 c56 -38 856 -615 1046 -754 l98 -72 -43 -7 c-23 -4 -47
-12 -52 -17 -6 -6 -4 -39 7 -91 31 -156 13 -332 -49 -456 -41 -85 -43 -98 -12
-88 64 19 120 70 156 139 29 57 53 211 54 352 l1 123 26 -17 c14 -9 62 -43
107 -76 l81 -60 -5 -136 c-5 -130 -4 -138 20 -184 l24 -47 -86 -64 c-246 -183
-516 -366 -602 -411 -10 -5 -19 -15 -19 -20 0 -6 -14 -22 -32 -35 l-32 -23 22
31 c24 33 23 35 -23 46 -95 23 -140 25 -214 9 -42 -9 -103 -17 -136 -17 -67
-1 -63 6 -46 -89 14 -82 28 -87 191 -72 l85 8 -65 -50 c-62 -47 -524 -382
-549 -397 -7 -4 -41 14 -81 44 l-69 51 15 42 c8 23 15 78 16 122 2 81 2 82
-36 128 -22 27 -47 47 -58 47 -29 0 -52 -63 -44 -121 7 -50 -2 -129 -14 -129
-4 0 -148 101 -321 225 -1001 718 -1169 840 -1167 847 3 7 116 89 913 662 734
527 830 595 833 596 2 0 29 -17 60 -39z m1624 -1168 c37 -25 68 -50 68 -53 0
-4 -31 -28 -70 -54 l-70 -46 0 47 c0 27 -3 72 -6 101 -4 28 -3 52 1 52 5 0 39
-21 77 -47z"/>
<path d="M2802 3678 c-26 -26 -7 -98 27 -98 40 0 68 69 39 98 -7 7 -21 12 -33
12 -12 0 -26 -5 -33 -12z"/>
<path d="M2803 3363 c-23 -35 -8 -46 56 -38 50 6 58 4 78 -17 30 -32 43 -71
43 -129 0 -50 0 -50 -22 -35 -50 35 -137 19 -315 -58 -142 -61 -226 -65 -280
-14 -34 31 -30 1 5 -48 44 -60 99 -103 181 -143 72 -34 82 -36 177 -36 100 0
104 1 183 41 44 23 83 39 86 36 3 -3 5 -18 5 -33 0 -15 9 -37 20 -50 l20 -24
-6 30 c-3 17 -9 41 -13 55 -8 25 -8 25 70 -14 67 -33 91 -40 158 -44 93 -5
187 19 263 67 42 27 58 31 135 33 84 3 88 4 91 26 3 17 -8 34 -37 61 -31 29
-40 43 -34 57 6 17 5 17 -9 6 -14 -11 -19 -10 -30 10 -18 32 -15 162 6 218 14
42 14 46 -1 58 -9 6 -42 12 -73 12 -31 0 -64 -6 -73 -12 -15 -12 -16 -17 -1
-63 28 -89 1 -255 -42 -255 -9 0 -68 21 -132 46 -136 54 -226 67 -267 40 l-25
-16 0 40 c0 63 19 126 46 151 27 25 30 44 12 56 -7 4 -69 8 -137 8 -117 0
-124 -1 -138 -22z"/>
<path d="M3100 2654 c-14 -15 -49 -37 -77 -50 -57 -26 -65 -44 -35 -76 9 -11
28 -43 42 -71 33 -68 64 -84 168 -89 94 -4 99 2 54 65 -15 20 -40 55 -56 77
-22 30 -31 56 -35 103 -7 72 -23 83 -61 41z"/>
<path d="M5796 4322 l-38 -17 57 -44 c71 -52 84 -58 96 -40 13 21 11 93 -3
107 -17 17 -66 14 -112 -6z"/>
<path d="M5861 3856 c-7 -9 -20 -16 -27 -16 -22 0 -16 -35 11 -76 14 -20 25
-43 25 -50 0 -8 5 -14 10 -14 6 0 10 11 10 25 0 14 5 25 10 25 17 0 11 76 -8
100 -16 20 -19 21 -31 6z"/>
<path d="M5882 3648 c2 -6 10 -14 16 -16 7 -2 10 2 6 12 -7 18 -28 22 -22 4z"/>
<path d="M5840 3464 c-50 -35 -125 -60 -202 -68 -37 -4 -71 -13 -77 -20 -14
-17 29 -106 64 -134 39 -31 67 -28 142 18 37 22 79 40 95 40 75 0 108 109 52
171 -22 24 -31 23 -74 -7z"/>
<path d="M5636 2971 c-19 -21 -45 -85 -46 -113 0 -26 -47 -75 -106 -110 -79
-48 -74 -60 32 -74 45 -5 65 -13 88 -36 28 -28 29 -31 22 -101 -5 -59 -3 -82
15 -133 l22 -62 -33 -41 c-30 -37 -32 -44 -27 -93 4 -28 13 -58 21 -66 9 -9
42 -16 88 -18 40 -2 92 -11 116 -20 39 -15 45 -15 68 1 35 22 54 73 54 140 0
92 -29 141 -93 154 -27 6 -32 11 -35 40 -4 39 20 109 55 162 13 20 21 43 18
51 -7 18 -48 28 -114 28 -147 0 -191 75 -101 174 56 62 65 82 45 112 -19 30
-64 32 -89 5z"/>
<path d="M5394 2085 c11 -8 25 -15 30 -15 6 0 2 7 -8 15 -11 8 -25 15 -30 15
-6 0 -2 -7 8 -15z"/>
<path d="M3975 2058 c-64 -25 -84 -52 -47 -65 9 -4 33 -19 52 -34 36 -28 48
-32 88 -30 30 1 124 93 117 113 -16 41 -126 49 -210 16z"/>
<path d="M3735 2040 c-20 -22 -20 -22 4 -41 28 -23 52 -24 91 -4 37 19 38 32
3 46 -57 22 -78 21 -98 -1z"/>
<path d="M5618 1961 c-26 -30 -68 -125 -68 -152 0 -15 9 -37 19 -50 18 -22 27
-24 106 -24 80 0 87 -2 105 -25 42 -54 53 -115 42 -216 -8 -73 -8 -113 3 -186
8 -51 15 -120 15 -152 0 -33 7 -110 16 -173 16 -106 15 -116 0 -157 -23 -59
-59 -76 -161 -76 -53 0 -85 5 -104 16 -27 16 -91 102 -91 122 0 12 -29 24 -41
16 -5 -3 -9 -16 -9 -30 0 -35 -24 -78 -52 -91 -12 -6 -68 -24 -123 -40 -116
-32 -253 -40 -246 -13 20 83 21 96 5 182 -18 98 -18 94 32 178 18 31 13 87
-13 138 -23 43 -62 53 -112 27 -46 -23 -51 -40 -38 -132 9 -73 8 -87 -8 -123
-33 -74 -61 -83 -283 -93 -153 -7 -207 -7 -250 4 -53 13 -55 12 -74 -12 -69
-87 -111 -111 -203 -113 -49 -1 -74 5 -134 33 -67 31 -77 33 -105 22 -60 -24
-112 -33 -181 -29 -56 3 -85 11 -145 40 l-75 37 -275 4 c-297 5 -303 6 -364
62 l-29 27 24 50 c24 52 29 120 19 293 -3 39 3 61 25 103 15 29 30 72 32 95 9
86 -48 173 -96 148 -43 -24 -55 -66 -58 -218 -1 -78 -7 -161 -13 -185 -18 -78
-12 -124 24 -196 40 -80 37 -99 -27 -136 -25 -15 -77 -62 -116 -106 -51 -56
-79 -80 -99 -82 -45 -5 -124 -138 -93 -157 15 -10 339 -35 451 -35 64 0 93 4
120 18 53 29 61 44 39 80 -9 17 -18 40 -19 51 -4 42 0 75 11 75 9 0 70 -34
181 -101 21 -13 37 -28 35 -35 -4 -20 51 -63 91 -69 20 -3 45 -8 55 -10 29 -6
86 15 97 35 7 13 7 27 -2 44 -6 15 -8 29 -4 33 8 9 166 25 238 26 29 0 58 -7
74 -18 l28 -18 -27 -23 c-15 -13 -27 -30 -27 -38 0 -34 158 -50 226 -21 l35
14 -16 31 c-19 38 -17 42 40 69 57 27 125 28 156 2 23 -19 24 -19 6 -56 -14
-29 -15 -40 -6 -52 32 -38 60 -42 316 -44 l249 -1 70 30 c109 46 121 47 189
12 84 -42 115 -46 200 -25 64 16 79 17 131 5 33 -7 134 -14 226 -16 92 -1 200
-3 240 -4 108 -3 115 -2 136 21 19 19 19 37 16 422 -3 221 -9 439 -15 484 -9
69 -8 93 6 149 20 81 14 147 -19 219 l-23 50 -65 0 c-57 0 -72 5 -135 41 -65
38 -72 40 -85 25z m-1073 -1204 c30 -26 36 -37 30 -55 -14 -46 -80 -51 -137
-11 -30 22 -33 34 -18 73 15 40 75 36 125 -7z m435 -64 c-2 -35 -90 -82 -90
-49 0 9 4 16 8 16 5 0 19 9 32 20 23 20 50 27 50 13z"/>
<path d="M5341 1733 c-36 -90 -37 -96 -15 -117 22 -23 51 -20 79 9 20 19 25
34 25 73 0 64 -17 112 -40 112 -13 0 -26 -21 -49 -77z"/>
<path d="M4684 1729 l-29 -31 24 -19 c32 -26 50 -24 62 8 12 32 4 73 -14 73
-7 0 -26 -14 -43 -31z"/>
<path d="M3424 1553 c-44 -40 -72 -102 -54 -113 6 -4 10 -13 8 -20 -3 -15 61
-36 72 -23 12 13 40 127 40 161 0 42 -16 41 -66 -5z"/>
<path d="M3308 1423 c6 -2 18 -2 25 0 6 3 1 5 -13 5 -14 0 -19 -2 -12 -5z"/>
<path d="M733 1358 c-6 -7 -13 -33 -15 -58 -4 -31 -18 -64 -47 -106 -55 -79
-62 -123 -27 -184 20 -35 26 -59 26 -107 0 -64 15 -93 48 -93 25 0 35 10 59
63 16 34 37 56 70 78 50 31 83 80 104 154 6 22 16 46 21 53 12 14 104 17 112
3 8 -13 106 -43 122 -37 16 6 18 39 4 66 -6 11 -34 26 -68 35 -31 9 -78 23
-103 31 -26 8 -58 14 -72 14 -14 0 -29 5 -32 10 -3 6 -14 10 -24 10 -10 0 -34
18 -54 40 -30 34 -42 40 -75 40 -22 0 -44 -6 -49 -12z"/>
<path d="M1788 633 c7 -3 16 -2 19 1 4 3 -2 6 -13 5 -11 0 -14 -3 -6 -6z"/>
</g>
</svg>
